<?xml version="1.0" standalone="no"?>
<!DOCTYPE svg PUBLIC "-//W3C//DTD SVG 20010904//EN"
 "http://www.w3.org/TR/2001/REC-SVG-20010904/DTD/svg10.dtd">
<svg version="1.0" xmlns="http://www.w3.org/2000/svg"
 width="1564.000000pt" height="1710.000000pt" viewBox="0 0 1564.000000 1710.000000"
 preserveAspectRatio="xMidYMid meet">

<g transform="translate(0.000000,1710.000000) scale(0.100000,-0.100000)"
fill="#000000" stroke="none">
<path d="M4570 16525 c-747 -75 -1340 -399 -1964 -1075 -425 -459 -797 -1023
-1123 -1698 -335 -696 -526 -1309 -594 -1912 -31 -271 -31 -726 0 -965 64
-496 191 -871 402 -1186 l58 -87 -82 -40 c-108 -52 -225 -141 -325 -247 -116
-123 -174 -213 -253 -397 -106 -247 -145 -503 -114 -760 59 -497 311 -925 775
-1316 138 -117 403 -294 563 -377 57 -30 58 -31 77 -100 40 -139 325 -835 464
-1129 233 -497 530 -1033 639 -1153 45 -50 130 -34 163 29 22 43 13 75 -46
163 -248 368 -571 1013 -848 1695 l-156 385 2 77 c1 74 0 80 -30 113 -54 62
-153 434 -244 914 -66 350 -80 445 -120 821 -37 353 -46 476 -52 725 -5 165
-8 300 -8 301 1 1 17 4 37 7 l36 5 32 -110 c49 -168 139 -339 253 -478 51 -63
109 -128 128 -145 19 -16 71 -62 115 -101 l80 -71 22 -249 c54 -625 180 -1364
319 -1881 169 -627 408 -1213 663 -1623 63 -102 130 -211 149 -243 l34 -59
-22 -121 c-75 -423 -192 -752 -460 -1287 -243 -485 -600 -1083 -770 -1290 -97
-117 -111 -164 -65 -218 30 -36 75 -48 115 -32 78 32 395 508 690 1035 91 163
342 664 405 809 131 304 241 645 270 840 4 25 10 46 14 45 3 0 47 -51 96 -112
60 -74 160 -175 295 -299 190 -174 222 -199 435 -337 127 -82 240 -154 253
-160 12 -7 129 -57 260 -112 l237 -99 275 -59 275 -59 272 -5 271 -6 284 54
283 54 262 110 c260 110 266 113 517 276 l253 165 242 228 c219 206 260 251
456 492 192 236 238 300 419 585 170 267 232 377 379 665 158 310 192 386 336
755 147 379 169 442 281 835 105 368 133 483 211 865 85 418 92 461 136 860
42 381 47 450 52 745 l6 325 85 17 c47 10 173 22 280 28 166 9 206 8 270 -5
41 -8 98 -20 126 -26 28 -5 73 -23 98 -40 26 -16 71 -34 99 -40 196 -41 267
-197 267 -583 0 -235 -23 -385 -92 -591 -108 -327 -295 -614 -592 -910 -200
-199 -405 -363 -589 -470 -56 -32 -78 -61 -79 -105 -2 -62 42 -105 106 -103
47 1 229 115 401 252 114 91 359 322 449 424 344 390 549 827 596 1268 20 194
9 475 -26 614 -25 101 -87 219 -148 281 -98 97 -276 156 -412 137 -71 -11 -72
-9 -38 58 62 122 105 969 70 1389 -59 715 -237 1459 -478 2000 -487 1095
-1155 1681 -2522 2215 -427 166 -663 246 -1221 410 -946 278 -1614 399 -2260
410 -182 3 -304 0 -405 -10z m867 -224 c389 -43 664 -94 1130 -211 917 -228
1821 -539 2404 -826 378 -187 629 -344 884 -555 716 -592 1186 -1597 1359
-2904 41 -307 49 -469 43 -841 -5 -312 -20 -528 -53 -734 -13 -83 7 -75 -181
-72 -150 3 -314 -11 -408 -34 -20 -5 -22 2 -38 202 -10 113 -16 208 -14 210 2
3 44 -11 92 -31 260 -104 400 -116 480 -40 68 63 37 154 -72 212 -82 44 -434
182 -491 193 -26 5 -110 40 -187 78 -77 38 -207 98 -290 132 -82 34 -206 88
-275 120 -193 88 -574 328 -955 604 -781 564 -1278 974 -1875 1551 -397 384
-639 612 -884 835 -149 135 -306 278 -350 319 -115 105 -269 218 -315 232 -77
23 -141 -19 -141 -91 0 -56 9 -70 82 -127 35 -27 131 -112 213 -188 83 -75
296 -266 475 -424 178 -157 354 -313 390 -345 154 -140 599 -577 774 -762 191
-201 364 -396 336 -379 -91 56 -547 403 -814 620 -284 230 -762 668 -1075 984
-159 161 -231 242 -331 377 -124 166 -182 224 -223 224 -11 0 -62 42 -115 93
-92 88 -174 147 -205 147 -7 0 -64 -30 -125 -66 -115 -69 -132 -89 -132 -153
0 -52 -11 -66 -70 -95 -62 -30 -338 -234 -418 -307 -59 -55 -149 -124 -225
-173 -141 -89 -630 -598 -804 -836 -318 -436 -516 -849 -803 -1670 -142 -406
-390 -1059 -421 -1110 -14 -22 -6 31 72 502 53 323 81 463 124 621 30 112 55
208 55 213 0 5 -35 -56 -77 -135 -91 -173 -216 -486 -268 -671 -20 -74 -50
-178 -65 -230 -42 -140 -47 -179 -75 -591 -15 -221 -30 -392 -38 -414 l-14
-39 -63 94 c-183 272 -308 649 -366 1100 -25 193 -25 674 -1 895 78 693 348
1467 794 2275 470 851 1075 1544 1652 1892 311 188 660 304 1031 344 179 19
631 11 867 -15z m-551 -1743 c67 -65 85 -87 89 -117 17 -115 80 -303 168 -501
66 -148 310 -606 440 -825 254 -428 601 -946 851 -1270 436 -565 793 -983
1214 -1422 197 -205 220 -233 196 -233 -50 0 -399 214 -674 413 -600 435
-1103 978 -1481 1602 -165 273 -417 788 -520 1065 -158 426 -212 670 -178 805
19 76 -28 139 -101 137 -36 -1 -75 -23 -90 -52 -6 -11 -16 -56 -22 -99 -34
-231 102 -685 393 -1319 444 -966 1057 -1716 1899 -2323 80 -57 175 -124 213
-148 37 -24 67 -46 67 -50 0 -7 -9 -12 -127 -74 -96 -50 -295 -242 -409 -396
-2 -2 -52 7 -111 19 -297 60 -652 41 -913 -48 -120 -41 -198 -80 -216 -108 -9
-13 -16 -40 -16 -61 0 -29 7 -43 31 -65 39 -35 73 -36 143 -5 122 54 290 99
413 112 193 19 555 -7 555 -40 0 -6 -14 -51 -30 -101 -92 -269 -45 -596 122
-851 189 -289 507 -480 910 -548 423 -72 886 -27 1358 133 611 207 1049 551
1197 940 39 105 45 129 54 248 l10 131 -35 128 c-35 128 -50 159 -152 315 -63
96 -240 264 -384 365 -234 165 -615 311 -938 359 -84 13 -154 25 -157 28 -2 2
4 31 14 64 15 49 17 77 11 145 -15 169 -74 331 -225 614 -39 72 -71 133 -73
137 -2 4 38 -16 90 -44 121 -67 657 -330 929 -456 136 -62 311 -155 479 -254
146 -85 309 -178 363 -207 53 -29 97 -58 97 -64 0 -7 9 -109 20 -227 27 -291
26 -324 -5 -362 -33 -39 -34 -103 -3 -143 22 -28 22 -33 20 -294 -3 -233 -9
-321 -48 -701 -44 -427 -46 -443 -136 -885 -81 -404 -103 -493 -213 -875 -110
-380 -139 -464 -270 -798 -122 -314 -173 -429 -320 -721 -152 -306 -198 -387
-374 -662 -177 -276 -226 -345 -413 -574 -188 -230 -238 -284 -436 -470 -218
-205 -228 -213 -464 -367 -239 -155 -243 -157 -497 -262 l-256 -105 -250 -46
-250 -47 -255 7 -255 7 -247 53 c-241 51 -251 55 -480 150 -219 92 -247 107
-457 243 -201 129 -244 162 -413 316 -152 138 -217 206 -336 351 -82 99 -158
196 -169 215 -12 19 -38 51 -58 70 -21 19 -52 65 -70 103 -19 37 -69 125 -113
195 -47 74 -133 239 -206 395 -243 515 -427 1104 -551 1762 -81 429 -174 1112
-175 1283 l0 44 33 -19 c18 -11 106 -43 195 -72 129 -41 199 -57 335 -76 160
-22 185 -23 352 -14 879 49 1682 627 1894 1364 33 118 41 163 49 285 8 124 7
162 -9 260 -38 235 -64 286 -218 430 -144 137 -236 205 -390 293 -149 86 -201
106 -376 152 -240 64 -422 83 -484 51 -48 -25 -63 -83 -36 -136 21 -40 43 -50
117 -50 92 0 223 -24 391 -71 126 -35 166 -52 270 -111 67 -39 146 -87 174
-107 89 -63 291 -252 308 -288 9 -18 25 -86 37 -151 75 -434 -112 -878 -520
-1229 -254 -218 -550 -366 -884 -443 -151 -34 -195 -40 -348 -46 -237 -8 -403
14 -610 84 -129 43 -291 119 -305 142 -12 19 -35 645 -35 956 l0 341 58 26
c275 121 515 185 842 223 115 13 196 15 395 11 256 -6 405 -22 594 -66 107
-25 147 -15 174 41 16 32 17 43 7 73 -7 20 -23 43 -36 52 -35 22 -205 61 -379
85 -207 29 -616 31 -820 5 -271 -36 -528 -99 -721 -178 -54 -21 -100 -39 -103
-39 -3 0 -3 55 1 122 3 68 7 151 7 185 l1 63 49 25 c130 65 428 149 627 175
108 14 312 15 347 1 45 -18 83 -13 115 14 64 54 45 141 -37 178 -40 18 -67 21
-201 21 -244 0 -488 -42 -738 -128 -73 -25 -134 -46 -135 -46 -2 0 5 82 14
183 10 100 18 193 19 207 0 20 11 31 53 53 88 46 200 132 539 414 350 291 475
400 606 527 261 253 487 655 669 1191 132 390 174 627 194 1110 5 127 12 245
15 262 6 29 8 31 26 22 12 -6 58 -47 104 -91z m-584 -454 c-135 -249 -508
-864 -816 -1344 -258 -401 -729 -1111 -734 -1105 -3 2 28 241 54 415 9 63 -34
130 -83 130 -13 0 -23 4 -23 9 0 27 158 365 232 494 91 161 284 439 401 578
148 174 487 521 614 627 98 82 405 311 411 307 1 -1 -24 -51 -56 -111z m1158
-209 c232 -329 1121 -1541 1364 -1859 443 -580 1024 -1157 1301 -1293 l55 -27
-21 -22 c-40 -43 -20 -133 35 -154 13 -5 95 -14 182 -20 419 -29 690 -90 987
-222 280 -123 513 -314 647 -528 75 -120 109 -247 100 -380 -14 -200 -115
-382 -313 -564 -404 -371 -1166 -629 -1777 -601 -411 19 -707 124 -925 327
-234 219 -327 558 -231 844 39 118 31 113 126 76 45 -18 90 -32 101 -32 51 0
99 49 99 101 0 47 -28 77 -100 106 -38 15 -70 33 -70 39 0 20 122 145 202 206
93 70 108 74 370 84 l168 7 135 -64 c80 -37 130 -66 121 -69 -8 -3 31 -16 87
-29 56 -14 103 -26 105 -27 2 -1 -15 -30 -38 -65 -22 -35 -50 -95 -61 -134
-21 -73 -22 -76 -52 -118 -54 -76 -83 -453 -45 -578 73 -234 277 -266 460 -71
218 234 303 683 177 940 -20 42 -44 73 -70 92 -72 52 -177 62 -252 24 -28 -15
-29 -15 -23 1 3 9 6 32 6 50 0 32 1 33 38 29 265 -27 365 -41 527 -70 105 -18
232 -45 283 -59 121 -33 162 -32 195 0 31 32 39 71 23 110 -19 46 -34 53 -173
90 -228 61 -562 111 -943 142 l-95 8 -245 253 c-135 140 -278 290 -319 335
-784 866 -1312 1568 -1836 2442 -151 252 -475 874 -475 912 0 9 26 -27 170
-232z m-959 48 c-28 -213 -74 -399 -155 -631 -141 -405 -285 -698 -445 -907
-124 -162 -257 -287 -691 -648 -146 -121 -273 -227 -284 -236 -10 -9 92 148
226 349 489 732 1113 1729 1318 2107 19 34 36 60 38 58 2 -2 -1 -43 -7 -92z
m1839 -818 c371 -330 953 -773 1416 -1079 246 -161 234 -150 371 -369 213
-342 335 -619 345 -787 3 -54 2 -55 -22 -52 -83 10 -218 75 -355 171 -189 132
-565 501 -832 816 -182 214 -328 404 -744 970 -182 248 -336 457 -343 465 -19
25 17 -4 164 -135z m1970 -1173 c13 -13 12 -13 -10 -2 -105 54 -220 145 -220
175 0 6 203 -147 230 -173z m-5775 -337 c-33 -265 -73 -638 -98 -905 l-12
-135 -80 -53 c-287 -190 -480 -480 -522 -787 l-17 -122 -28 11 c-25 9 -28 15
-28 54 0 61 27 136 232 647 214 533 454 1178 571 1532 6 18 12 32 13 30 2 -1
-12 -124 -31 -272z m-135 -1460 c-5 -88 -10 -170 -10 -182 0 -15 -19 -35 -62
-66 -119 -85 -202 -184 -222 -261 -7 -29 12 -84 37 -104 9 -8 33 -16 54 -19
45 -6 84 19 108 71 9 18 31 47 49 65 l33 32 6 -373 c4 -205 10 -427 13 -492
l7 -120 -29 23 c-16 12 -65 67 -109 121 -304 374 -349 858 -114 1210 51 75
234 269 244 258 3 -2 0 -76 -5 -163z m6075 -497 c23 -57 31 -217 15 -316 -14
-87 -60 -215 -101 -281 l-27 -44 -26 51 c-21 42 -26 65 -26 127 0 86 17 166
37 178 7 4 20 22 29 39 23 44 11 91 -31 126 l-35 28 29 46 c65 102 107 116
136 46z m-7040 -355 c0 -139 26 -193 93 -193 19 0 20 -10 26 -187 3 -104 26
-389 52 -638 42 -419 51 -478 124 -865 44 -228 97 -478 119 -555 22 -77 38
-141 36 -143 -1 -2 -67 38 -146 88 -262 168 -517 408 -676 639 -260 376 -353
813 -252 1191 78 289 214 504 414 654 61 46 184 116 205 116 3 0 5 -48 5 -107z"/>
<path d="M3856 9915 c-100 -35 -180 -170 -201 -338 -7 -53 -10 -59 -39 -71
-53 -22 -71 -72 -69 -191 1 -112 12 -169 50 -265 32 -81 113 -200 161 -237 20
-15 44 -35 54 -45 35 -35 82 -52 144 -53 54 0 67 4 112 34 120 82 183 269 183
538 -1 267 -37 388 -162 550 -40 50 -114 93 -160 93 -19 -1 -51 -7 -73 -15z
m89 -229 c77 -118 93 -386 33 -569 -20 -64 -54 -127 -67 -127 -9 0 -34 81 -52
165 -16 76 -16 319 0 405 14 74 45 150 60 150 6 0 18 -11 26 -24z"/>
<path d="M5625 8628 c-78 -45 -332 -293 -432 -423 -158 -206 -225 -531 -163
-793 57 -241 167 -410 334 -513 185 -114 413 -142 751 -92 95 14 113 20 137
44 40 39 39 99 -1 140 -35 35 -51 35 -211 13 -149 -21 -357 -14 -447 14 -196
62 -322 223 -369 471 -34 181 7 397 106 550 52 80 269 313 345 368 65 49 79
65 89 105 18 78 -73 154 -139 116z"/>
<path d="M8320 6403 c-23 -8 -60 -45 -60 -59 0 -23 -109 -230 -171 -324 -151
-231 -281 -381 -445 -515 -307 -251 -619 -392 -1034 -467 -99 -18 -162 -23
-300 -23 -166 0 -181 2 -295 33 -66 18 -203 67 -305 109 -102 41 -200 78 -218
80 -88 13 -141 -105 -76 -171 31 -30 391 -175 529 -212 200 -54 354 -65 557
-39 300 37 545 107 813 232 203 95 467 286 636 460 154 159 340 424 441 629
64 131 74 181 43 227 -23 35 -77 54 -115 40z"/>
<path d="M1130 9555 c0 -8 5 -15 10 -15 6 0 10 7 10 15 0 8 -4 15 -10 15 -5 0
-10 -7 -10 -15z"/>
<path d="M10460 6324 c-24 -14 -71 -34 -105 -45 -128 -43 -299 -163 -441 -310
-104 -108 -184 -207 -184 -228 0 -10 -17 -40 -38 -67 -113 -144 -178 -308
-169 -422 4 -55 9 -69 38 -99 44 -46 86 -63 151 -63 81 1 133 16 254 75 210
102 398 271 534 477 l57 88 119 -61 c228 -118 464 -285 739 -525 157 -137 711
-691 680 -680 -270 96 -299 104 -769 211 -241 55 -254 59 -385 125 -378 189
-591 251 -668 194 -40 -29 -55 -66 -47 -110 21 -114 201 -202 653 -320 119
-31 148 -43 265 -111 168 -98 693 -423 951 -588 645 -413 1553 -1083 1875
-1385 l55 -51 -130 5 c-313 11 -798 171 -1155 383 -163 96 -591 406 -790 572
-83 69 -116 83 -164 70 -52 -14 -78 -59 -73 -124 3 -39 28 -100 114 -275 61
-124 138 -267 173 -319 164 -250 359 -453 631 -658 63 -47 130 -99 149 -115
19 -15 38 -28 41 -28 4 0 47 -23 96 -51 149 -86 521 -237 554 -224 8 3 41 -4
74 -15 66 -23 232 -62 340 -80 134 -22 128 -15 65 -72 -69 -62 -117 -91 -228
-135 -316 -125 -731 -182 -1117 -154 -461 34 -988 195 -1391 427 -592 340
-1135 856 -1495 1419 -216 337 -329 556 -411 795 -83 243 -119 512 -83 629 10
35 15 70 11 86 -19 76 -120 103 -176 47 -42 -42 -54 -99 -54 -259 -1 -125 -3
-140 -16 -128 -33 29 -95 22 -132 -15 -26 -27 -29 -36 -25 -73 2 -23 12 -61
21 -84 11 -30 29 -205 61 -585 25 -299 54 -606 66 -682 71 -488 215 -868 467
-1236 91 -132 203 -273 283 -353 63 -63 70 -67 112 -67 79 0 126 73 92 145
-10 19 -21 35 -25 35 -4 0 -46 44 -93 97 -296 342 -493 729 -588 1158 -38 176
-64 371 -89 675 -12 140 -27 329 -35 419 -8 91 -13 166 -12 168 2 1 14 -30 26
-70 96 -296 406 -830 682 -1172 373 -463 801 -833 1299 -1123 536 -312 1245
-493 1830 -467 618 28 1152 231 1325 506 l25 39 108 0 c96 0 111 2 131 21 50
47 50 111 -1 154 -28 23 -36 25 -141 25 -318 0 -576 40 -837 129 -134 46 -130
44 -415 173 -234 107 -254 118 -413 241 -198 152 -394 357 -521 546 -48 70
-113 182 -109 187 2 1 41 -26 88 -60 173 -127 388 -274 482 -330 187 -111 554
-263 783 -325 215 -58 327 -75 495 -75 185 -1 223 8 287 69 l46 44 -5 65 c-5
54 -12 73 -42 114 -96 132 -464 434 -1036 852 -485 355 -936 656 -1495 999
-18 11 -17 12 10 6 64 -13 284 -89 394 -136 273 -117 497 -255 705 -433 97
-82 201 -147 245 -153 43 -6 94 16 111 46 5 11 10 39 10 62 0 51 -17 69 -186
188 -194 138 -256 196 -784 728 -278 280 -563 560 -634 621 -282 246 -525 418
-771 548 l-150 79 12 45 c16 62 16 164 -1 203 -7 18 -13 53 -13 77 0 36 -6 48
-32 72 -40 35 -81 36 -141 2z m-5 -288 c-7 -37 -20 -43 -59 -27 -17 6 -15 11
20 39 21 17 40 30 42 28 2 -2 0 -20 -3 -40z m-184 -206 c41 -12 77 -25 81 -29
12 -10 -71 -128 -149 -211 -89 -95 -194 -176 -304 -234 -76 -40 -165 -73 -174
-64 -2 2 6 33 19 68 45 127 150 261 321 409 59 51 113 90 120 88 7 -3 46 -15
86 -27z"/>
</g>
</svg>
